Coordinates
version=1
nRows=33
nColumns=24
inDegrees=yes

Units are S.I. units (second, meters, Newtons, ...)
If the header above contains a line with 'inDegrees', this indicates whether rotational values are in degrees (yes) or radians (no).

endheader
time	pelvis_tilt	pelvis_list	pelvis_rotation	pelvis_tx	pelvis_ty	pelvis_tz	hip_flexion_r	hip_adduction_r	hip_rotation_r	knee_angle_r	ankle_angle_r	subtalar_angle_r	mtp_angle_r	hip_flexion_l	hip_adduction_l	hip_rotation_l	knee_angle_l	ankle_angle_l	subtalar_angle_l	mtp_angle_l	lumbar_extension	lumbar_bending	lumbar_rotation
0.775000	10.427969	1.771425	-178.131925	0.235494	0.845969	-1.202430	20.825911	-12.077726	-27.147841	-19.743636	2.314646	2.774277	0.000000	23.392231	-14.537450	-19.081197	-21.953304	3.842067	4.573802	0.000000	3.401794	0.666321	-1.432616
0.780000	10.441569	1.769001	-178.177418	0.236412	0.845258	-1.202484	21.278295	-12.202043	-26.786306	-20.485668	2.555781	2.555643	0.000000	23.896581	-14.623749	-18.723934	-22.784118	3.978043	4.061414	0.000000	3.207676	0.984263	-2.065496
0.785000	10.444123	1.773126	-178.232158	0.237300	0.844554	-1.202370	21.707940	-12.322442	-26.467697	-21.197985	2.746337	2.325718	0.000000	24.405149	-14.718451	-18.423394	-23.665909	4.164496	3.685299	0.000000	3.124644	0.740050	-1.212341
0.790000	10.439759	1.781348	-178.259491	0.238259	0.843727	-1.202430	22.146691	-12.440630	-26.148718	-21.951498	2.953827	2.134523	0.000000	24.939605	-14.830092	-18.097680	-24.577430	4.434302	3.425934	0.000000	2.958395	0.772112	-1.182407
0.795000	10.434922	1.789932	-178.308520	0.239266	0.842840	-1.202418	22.619327	-12.566525	-25.808473	-22.754494	3.184225	1.946636	0.000000	25.479992	-14.955726	-17.841200	-25.504571	4.663580	3.179282	0.000000	2.798270	0.834228	-1.139886
0.800000	10.436164	1.796847	-178.386642	0.240246	0.841832	-1.202330	23.132917	-12.705981	-25.463966	-23.616516	3.472547	1.773914	0.000000	26.027176	-15.090260	-17.615834	-26.456959	4.942638	2.982034	0.000000	2.627090	0.873373	-0.996206
0.805000	10.383579	1.820556	-178.438787	0.241225	0.840810	-1.202308	23.589186	-12.830762	-25.159631	-24.491430	3.786720	1.631689	0.000000	26.532402	-15.247440	-17.371075	-27.413391	5.208462	2.834575	0.000000	2.418044	0.951360	-0.928713
0.810000	10.371952	1.831427	-178.501239	0.242271	0.839526	-1.202244	24.132000	-12.984993	-24.811654	-25.441307	4.137398	1.527819	0.000000	27.087990	-15.390296	-17.128517	-28.391910	5.585740	2.772081	0.000000	2.223173	0.984030	-0.819811
0.815000	10.348996	1.839154	-178.548510	0.243382	0.838177	-1.202368	24.664663	-13.133158	-24.494589	-26.386860	4.459445	1.412536	0.000000	27.635663	-15.558897	-16.952410	-29.359541	5.897113	2.785198	0.000000	1.978446	1.247520	-1.338895
0.820000	10.305339	1.834211	-178.627770	0.244431	0.836700	-1.202280	25.207828	-13.318633	-24.200307	-27.390925	4.823685	1.386944	0.000000	28.146411	-15.727881	-16.849772	-30.347660	6.278135	2.863087	0.000000	1.769625	1.276953	-1.206608
0.825000	10.265296	1.840918	-178.709576	0.245472	0.835111	-1.202193	25.770518	-13.499903	-23.930753	-28.428897	5.246113	1.390122	0.000000	28.646652	-15.913030	-16.755581	-31.303244	6.705642	3.000118	0.000000	1.563942	1.324343	-1.080576
0.830000	10.209987	1.857233	-178.813013	0.246549	0.833404	-1.202064	26.342495	-13.674889	-23.673796	-29.500605	5.688153	1.443083	0.000000	29.126411	-16.120922	-16.666916	-32.271897	7.175735	3.189186	0.000000	1.340201	1.372088	-0.897666
0.835000	10.144084	1.853374	-178.905040	0.247623	0.831569	-1.201923	26.907864	-13.883095	-23.426912	-30.585202	6.152721	1.535466	0.000000	29.583423	-16.305893	-16.589533	-33.228105	7.684396	3.375368	0.000000	1.106855	1.406794	-0.765806
0.840000	10.087731	1.869131	-179.010728	0.248750	0.829578	-1.201872	27.499340	-14.069299	-23.182654	-31.690608	6.619068	1.708909	0.000000	30.053491	-16.537309	-16.532284	-34.185780	8.220514	3.658576	0.000000	0.880695	1.463809	-0.649506
0.845000	10.025394	1.866022	-179.069590	0.249931	0.827470	-1.201815	28.067033	-14.293373	-22.991854	-32.776871	7.088312	1.878926	0.000000	30.542400	-16.749434	-16.480491	-35.169820	8.765703	3.968981	0.000000	0.649484	1.483827	-0.569773
0.850000	9.903640	1.884460	-179.167730	0.250980	0.825318	-1.201684	28.586481	-14.516976	-22.863453	-33.907505	7.604408	2.164184	0.000000	30.940949	-17.001614	-16.457044	-36.148027	9.399481	4.379250	0.000000	0.360438	1.541835	-0.425203
0.855000	9.864261	1.904310	-179.262113	0.252147	0.822985	-1.201557	29.217130	-14.739648	-22.725114	-35.061507	8.100234	2.337195	0.000000	31.442064	-17.230626	-16.352419	-37.127435	9.931161	4.587809	0.000000	0.158657	1.598550	-0.316753
0.860000	9.792336	1.909178	-179.379086	0.253267	0.820522	-1.201440	29.811464	-14.986134	-22.603881	-36.223799	8.661664	2.622953	0.000000	31.921086	-17.481376	-16.326690	-38.159964	10.497010	4.869377	0.000000	-0.065607	1.638206	-0.149547
0.865000	9.779753	1.859794	-179.471651	0.254543	0.817853	-1.201160	30.485499	-15.327305	-22.500585	-37.411695	9.243037	3.025231	0.000000	32.475813	-17.646345	-16.294801	-39.190070	11.077430	5.132626	0.000000	-0.261283	1.637207	-0.043148
0.870000	9.722163	1.828709	-179.549302	0.255742	0.815206	-1.201119	31.077128	-15.613857	-22.390250	-38.548127	9.822015	3.336949	0.000000	32.998404	-17.864919	-16.293430	-40.251640	11.669785	5.467353	0.000000	-0.474285	1.727686	-0.202887
0.875000	9.724231	1.837135	-179.623514	0.256988	0.812413	-1.201089	31.730128	-15.850535	-22.269314	-39.672880	10.352860	3.500064	0.000000	33.654838	-18.149887	-16.258888	-41.498268	12.240662	5.820826	0.000000	-0.656764	1.695687	-0.022268
0.880000	9.641330	1.903632	-179.744112	0.258086	0.809679	-1.201184	32.274948	-16.008177	-22.175256	-40.777002	10.920980	3.778112	0.000000	34.160108	-18.516565	-16.297712	-42.579828	12.829020	6.171637	0.000000	-0.904356	1.815239	-0.002739
0.885000	9.666742	1.854259	-179.828596	0.259353	0.806729	-1.200972	32.976352	-16.321399	-22.045325	-41.916251	11.469391	4.011996	0.000000	34.780944	-18.718165	-16.349498	-43.651673	13.381186	6.391736	0.000000	-1.061524	1.795253	0.084977
0.890000	9.630973	1.873543	-179.909712	0.260595	0.803743	-1.200973	33.589205	-16.557396	-21.977495	-43.047497	12.067353	4.311415	0.000000	35.363765	-19.027898	-16.417944	-44.753322	13.955987	6.696714	0.000000	-1.262045	1.865174	0.111907
0.895000	9.657065	1.946214	-180.063334	0.261660	0.800675	-1.200969	34.242707	-16.681126	-21.848686	-44.105102	12.565324	4.494273	0.000000	35.969432	-19.446929	-16.585546	-45.783618	14.485317	6.936737	0.000000	-1.398675	1.934082	0.323038
0.900000	9.716455	1.914829	-180.098938	0.262963	0.797556	-1.201062	34.947456	-16.942255	-21.731481	-45.199371	13.078508	4.638398	0.000000	36.645059	-19.722009	-16.678445	-46.853691	15.020471	7.352775	0.000000	-1.509312	1.912006	0.286664
0.905000	9.693020	1.862653	-180.148308	0.264287	0.794425	-1.201091	35.592869	-17.233177	-21.594683	-46.320626	13.632004	4.801999	0.000000	37.222866	-19.987130	-16.793277	-47.921688	15.534238	7.764514	0.000000	-1.728103	1.889201	0.274653
0.910000	9.818878	1.882378	-180.276115	0.265508	0.791149	-1.201011	36.386513	-17.408887	-21.413125	-47.397761	14.114144	4.966459	0.000000	37.950965	-20.367698	-16.922416	-49.023925	16.065695	8.212364	0.000000	-1.768856	1.942204	0.384363
0.915000	9.977062	2.016776	-180.424153	0.267059	0.787706	-1.201546	37.242266	-17.392156	-21.209830	-48.495234	14.612314	4.986105	0.000000	38.779412	-20.908731	-16.977272	-50.122496	16.541585	8.653402	0.000000	-1.810153	2.052343	0.509943
0.920000	9.996609	1.985054	-180.456347	0.268376	0.784431	-1.201681	37.932879	-17.633018	-21.026480	-49.605282	15.118395	5.064189	0.000000	39.411971	-21.212514	-17.062072	-51.173758	17.043502	9.099495	0.000000	-1.985605	1.993996	0.529281
0.925000	10.183145	1.942736	-180.523209	0.269716	0.780983	-1.201545	38.797082	-17.878855	-20.806126	-50.666701	15.573358	5.158170	0.000000	40.203755	-21.470095	-17.114644	-52.214543	17.559599	9.444401	0.000000	-1.978115	1.963962	0.583519
0.930000	10.197705	1.928342	-180.531695	0.270913	0.777682	-1.201895	39.449801	-18.065818	-20.598436	-51.731971	16.062203	5.209651	0.000000	40.826079	-21.778388	-17.156543	-53.222801	18.020547	9.796188	0.000000	-2.178857	1.945256	0.431529
0.935000	10.342095	1.918820	-180.602397	0.272291	0.774125	-1.201793	40.292833	-18.259867	-20.341393	-52.814244	16.507833	5.286326	0.000000	41.601720	-22.082157	-17.172221	-54.309421	18.538200	10.142362	0.000000	-2.178197	1.916663	0.615452
